HIERARCHY
ROOT Hips
{
	OFFSET -0.001795 -0.223333 0.028219
	CHANNELS 6 Xposition Yposition Zposition Zrotation Yrotation Xrotation 
	JOINT LeftUpLeg
	{
		OFFSET 0.069520 -0.091406 -0.006815
		CHANNELS 3 Zrotation Yrotation Xrotation
		JOINT LeftLeg
		{
			OFFSET 0.034277 -0.375199 -0.004496
			CHANNELS 3 Zrotation Yrotation Xrotation
			JOINT LeftFoot
			{
				OFFSET -0.013596 -0.397961 -0.043693
				CHANNELS 3 Zrotation Yrotation Xrotation
				JOINT LeftToe
				{
					OFFSET 0.026358 -0.055791 0.119288
					CHANNELS 3 Zrotation Yrotation Xrotation
					End Site
					{
						OFFSET 0.000000 0.000000 0.000000
					}
				}
			}
		}
	}
	JOINT RightUpLeg
	{
		OFFSET -0.067670 -0.090522 -0.004320
		CHANNELS 3 Zrotation Yrotation Xrotation
		JOINT RightLeg
		{
			OFFSET -0.038290 -0.382569 -0.008850
			CHANNELS 3 Zrotation Yrotation Xrotation
			JOINT RightFoot
			{
				OFFSET 0.015774 -0.398415 -0.042312
				CHANNELS 3 Zrotation Yrotation Xrotation
				JOINT RightToe
				{
					OFFSET -0.025372 -0.048144 0.123348
					CHANNELS 3 Zrotation Yrotation Xrotation
					End Site
					{
						OFFSET 0.000000 0.000000 0.000000
					}
				}
			}
		}
	}
	JOINT Spine
	{
		OFFSET -0.002533 0.108963 -0.026696
		CHANNELS 3 Zrotation Yrotation Xrotation
		JOINT Spine1
		{
			OFFSET 0.005487 0.135180 0.001092
			CHANNELS 3 Zrotation Yrotation Xrotation
			JOINT Spine2
			{
				OFFSET 0.001457 0.052922 0.025425
				CHANNELS 3 Zrotation Yrotation Xrotation
				JOINT Neck
				{
					OFFSET -0.002778 0.213870 -0.042857
					CHANNELS 3 Zrotation Yrotation Xrotation
					JOINT Head
					{
						OFFSET 0.005152 0.064970 0.051349
						CHANNELS 3 Zrotation Yrotation Xrotation
						End Site
						{
							OFFSET 0.000000 0.000000 0.000000
						}
					}
				}
				JOINT LeftShoulder
				{
					OFFSET 0.078845 0.121749 -0.034090
					CHANNELS 3 Zrotation Yrotation Xrotation
					JOINT LeftArm
					{
						OFFSET 0.090977 0.030469 -0.008868
						CHANNELS 3 Zrotation Yrotation Xrotation
						JOINT LeftForeArm
						{
							OFFSET 0.259612 -0.012772 -0.027456
							CHANNELS 3 Zrotation Yrotation Xrotation
							JOINT LeftHand
							{
								OFFSET 0.249234 0.008986 -0.001171
								CHANNELS 3 Zrotation Yrotation Xrotation
								End Site
								{
									OFFSET 0.000000 0.000000 0.000000
								}
							}
						}
					}
				}
				JOINT RightShoulder
				{
					OFFSET -0.081759 0.118833 -0.038615
					CHANNELS 3 Zrotation Yrotation Xrotation
					JOINT RightArm
					{
						OFFSET -0.096012 0.032551 -0.009143
						CHANNELS 3 Zrotation Yrotation Xrotation
						JOINT RightForeArm
						{
							OFFSET -0.253742 -0.013329 -0.021401
							CHANNELS 3 Zrotation Yrotation Xrotation
							JOINT RightHand
							{
								OFFSET -0.255298 0.007772 -0.005559
								CHANNELS 3 Zrotation Yrotation Xrotation
								End Site
								{
									OFFSET 0.000000 0.000000 0.000000
								}
							}
						}
					}
				}
			}
		}
	}
}
MOTION
Frames: 16
Frame Time: 0.050000
0.000000 0.932436 0.000000 -6.414366 -17.445752 10.875550 13.645973 1.807486 -22.462352 -2.697759 0.776058 14.244315 2.270928 5.232720 3.947224 0.000000 0.000000 0.000000 -4.399808 1.641260 -16.365304 4.844404 -0.027393 11.790335 -5.377033 -16.424838 10.165157 0.000000 0.000000 0.000000 -9.950823 2.769168 24.726129 0.088858 0.109454 -18.794226 -4.894310 6.402116 26.453811 -4.373945 3.907372 -9.348125 0.000000 0.000000 0.000000 -14.685182 -20.492223 10.355029 -57.842777 -45.692476 15.133445 -17.480153 -46.049875 10.955522 0.000000 0.000000 0.000000 -6.839197 16.594025 5.156374 37.747322 22.201044 0.960860 75.442376 77.226382 66.438214 0.000000 0.000000 0.000000 
-0.000358 0.932211 -0.000235 -6.568952 -18.850568 10.607473 14.004934 1.911050 -21.342146 -2.609837 0.827441 14.628029 0.971200 2.530532 3.101043 0.000000 0.000000 0.000000 -3.611525 1.697043 -16.308599 2.985321 0.270803 11.353315 -3.987302 -14.418298 11.234761 0.000000 0.000000 0.000000 -10.351269 2.910101 24.225983 -1.369244 0.491852 -19.339810 -4.723909 5.424996 27.329122 -3.574474 3.128189 -7.103311 0.000000 0.000000 0.000000 -16.426702 -19.720329 10.756791 -55.106887 -43.628287 12.742400 -17.387116 -51.949284 12.915297 0.000000 0.000000 0.000000 -10.035073 16.551505 4.941834 38.546433 25.310570 1.658205 70.280638 74.886965 58.772140 0.000000 0.000000 0.000000 
-0.000586 0.930808 -0.000567 -7.085595 -17.166996 11.185249 14.838408 2.104121 -22.659611 -2.269196 0.775892 16.738000 1.013680 2.229422 0.829043 0.000000 0.000000 0.000000 -2.712015 1.690544 -16.013362 2.203572 0.313061 10.549061 -4.189155 -14.199596 9.765936 0.000000 0.000000 0.000000 -9.464282 2.605448 24.816286 -1.524905 0.539561 -18.375968 -4.866426 5.424955 24.968717 -2.556115 2.343018 -5.617473 0.000000 0.000000 0.000000 -18.319932 -21.595232 11.847247 -53.890609 -42.115154 11.665295 -16.045140 -50.974368 11.611362 0.000000 0.000000 0.000000 -9.651131 17.255135 5.154285 37.943838 23.217320 1.329750 76.391977 74.584078 64.376022 0.000000 0.000000 0.000000 
-0.001016 0.932021 -0.000939 -7.339840 -17.852326 11.117362 15.334894 2.294677 -22.599505 -2.789122 0.959435 16.757149 -0.423659 -0.546903 1.534459 0.000000 0.000000 0.000000 -3.115931 1.738218 -16.511507 2.515403 0.282680 10.665231 -4.599695 -15.051411 9.957307 0.000000 0.000000 0.000000 -9.699915 2.684730 24.571910 -2.106282 0.687207 -18.603782 -5.376747 4.933029 25.486355 -2.483687 2.227959 -2.620150 0.000000 0.000000 0.000000 -18.552018 -21.216061 11.884169 -54.741725 -43.027813 12.458227 -12.222802 -49.519415 9.412745 0.000000 0.000000 0.000000 -10.589735 17.051729 5.056615 37.147687 24.250305 1.411818 74.802615 73.573332 61.480925 0.000000 0.000000 0.000000 
-0.001571 0.932172 -0.001077 -7.605184 -18.016559 10.776272 15.923342 2.521452 -22.822704 -3.352637 1.188440 17.515767 0.126654 0.678611 2.009379 0.000000 0.000000 0.000000 -2.757582 1.759932 -16.501248 2.472156 0.341026 11.436733 -4.614952 -15.172330 10.208610 0.000000 0.000000 0.000000 -10.280009 2.923918 25.021466 -2.021271 0.660785 -18.358188 -5.128983 5.501308 25.004234 -2.515355 2.283214 -3.812759 0.000000 0.000000 0.000000 -16.642414 -21.041215 11.202734 -57.388152 -43.473621 13.862068 -8.151792 -49.561850 7.472965 0.000000 0.000000 0.000000 -10.954806 16.688596 4.914201 37.742563 24.958621 1.786334 72.607436 73.922776 60.133718 0.000000 0.000000 0.000000 
-0.002151 0.933187 -0.001014 -7.604404 -17.497254 11.097559 15.697354 2.407459 -23.026020 -3.311163 1.127712 17.225810 -0.007304 0.421326 2.026738 0.000000 0.000000 0.000000 -2.958231 1.745205 -16.537901 3.241168 0.198569 11.264826 -4.981054 -15.886365 10.614223 0.000000 0.000000 0.000000 -10.313201 2.917305 25.093230 -2.078954 0.706400 -19.409663 -5.011844 5.494989 25.341781 -2.351941 2.155650 -2.095616 0.000000 0.000000 0.000000 -16.914447 -21.793790 11.609564 -56.601995 -43.116510 13.320113 -7.196755 -49.641954 6.975020 0.000000 0.000000 0.000000 -11.565627 17.064495 4.922747 38.291140 24.110655 1.608417 73.591114 74.164549 61.405179 0.000000 0.000000 0.000000 
-0.002565 0.933647 -0.000699 -7.546270 -17.102541 11.088129 15.667852 2.391261 -23.274443 -3.264929 1.101749 17.340816 0.219267 0.929978 2.229319 0.000000 0.000000 0.000000 -2.740949 1.778860 -16.751245 2.856158 0.274541 11.665661 -4.838472 -15.630531 10.648383 0.000000 0.000000 0.000000 -10.246959 2.907997 25.384347 -2.200127 0.739105 -18.861817 -5.445717 5.326412 24.624461 -2.534212 2.311361 -2.480283 0.000000 0.000000 0.000000 -17.023510 -22.150711 11.776041 -56.505682 -43.426777 13.533192 -7.346768 -48.263171 6.741004 0.000000 0.000000 0.000000 -11.439316 17.493600 5.044489 38.590399 24.040989 1.687698 70.117940 74.023996 58.226267 0.000000 0.000000 0.000000 
-0.002769 0.934287 -0.000260 -7.623677 -16.993574 11.280949 15.630143 2.403336 -23.585740 -3.190458 1.086239 17.540211 0.295297 1.182396 2.662150 0.000000 0.000000 0.000000 -2.585359 1.817240 -16.982519 3.071545 0.257382 12.007620 -4.865923 -15.657183 10.562375 0.000000 0.000000 0.000000 -9.967430 2.825947 25.448069 -2.596761 0.843087 -18.710403 -5.566237 5.284275 24.279510 -2.509849 2.290118 -1.936363 0.000000 0.000000 0.000000 -17.771784 -22.980570 12.380923 -55.481727 -43.191643 13.007820 -8.120293 -47.502125 6.903238 0.000000 0.000000 0.000000 -11.159485 17.688302 5.122376 38.983310 24.349655 1.828435 67.846934 73.364462 55.708784 0.000000 0.000000 0.000000 
-0.002911 0.934384 0.000306 -7.615470 -17.351130 11.279609 15.555384 2.395780 -23.356806 -2.943472 1.024336 17.454430 0.359580 1.320582 2.768219 0.000000 0.000000 0.000000 -2.446617 1.871936 -17.288780 3.299905 0.266076 12.661082 -4.951164 -15.761081 10.243730 0.000000 0.000000 0.000000 -9.935182 2.861342 25.590040 -2.897108 0.918463 -18.745457 -5.642376 5.226003 24.062110 -2.857384 2.579720 -2.332441 0.000000 0.000000 0.000000 -17.350516 -23.306544 12.504246 -55.353042 -43.246193 13.056076 -8.945017 -47.639317 7.289941 0.000000 0.000000 0.000000 -11.327808 17.866871 5.171156 39.345156 24.740317 1.978982 63.796573 73.085132 51.874097 0.000000 0.000000 0.000000 
-0.003176 0.934642 0.000965 -7.571682 -17.527260 11.257512 15.547310 2.406398 -23.264358 -2.730327 0.949613 17.152046 0.500231 1.629157 2.950560 0.000000 0.000000 0.000000 -2.400175 1.894263 -17.406533 3.334652 0.293333 13.135354 -5.164300 -16.076693 9.924932 0.000000 0.000000 0.000000 -9.940119 2.843372 25.361609 -3.168548 0.988179 -18.285182 -5.682519 4.988783 23.781284 -3.235402 2.870934 -3.580923 0.000000 0.000000 0.000000 -16.848683 -23.308886 12.450686 -55.629454 -43.579021 13.427473 -8.924131 -47.655376 7.294783 0.000000 0.000000 0.000000 -11.709034 18.097878 5.217939 39.592086 25.584434 2.258470 61.633694 72.433220 49.349096 0.000000 0.000000 0.000000 
-0.003677 0.934590 0.001631 -7.528532 -18.050307 10.981970 15.834814 2.486235 -22.781640 -2.739679 0.968850 17.019860 0.500676 1.666363 3.187605 0.000000 0.000000 0.000000 -2.333206 1.874816 -17.171891 3.319708 0.331977 13.499268 -5.119704 -15.936131 9.624631 0.000000 0.000000 0.000000 -10.232676 2.920975 25.054265 -3.100215 0.957957 -18.060130 -5.590301 5.083916 23.810272 -3.451826 3.044170 -3.886842 0.000000 0.000000 0.000000 -16.515406 -23.239819 12.371187 -55.121904 -43.779191 13.371445 -9.230410 -48.486252 7.604686 0.000000 0.000000 0.000000 -11.975819 18.657474 5.323742 39.776670 26.604940 2.573715 61.400554 72.413982 49.091787 0.000000 0.000000 0.000000 
-0.004389 0.934618 0.002033 -7.482232 -18.292306 10.727927 15.909143 2.489731 -22.386166 -2.619633 0.926849 16.741723 0.578715 1.843820 3.342170 0.000000 0.000000 0.000000 -2.279286 1.849136 -16.929802 3.271914 0.359677 13.698846 -5.317625 -16.291038 9.621621 0.000000 0.000000 0.000000 -10.241093 2.915822 24.940242 -3.112818 0.957204 -17.940770 -5.440942 4.987098 23.966046 -3.695890 3.223263 -4.638145 0.000000 0.000000 0.000000 -16.212041 -23.141818 12.298671 -54.474338 -44.278115 13.430755 -9.588455 -49.004601 7.876901 0.000000 0.000000 0.000000 -12.398046 18.953858 5.354218 39.932917 27.352042 2.788111 63.057711 72.131759 50.152318 0.000000 0.000000 0.000000 
-0.005119 0.934728 0.002148 -7.420886 -18.600801 10.627501 16.133009 2.549544 -22.113420 -2.753900 0.956561 16.352693 0.807537 2.365338 3.812218 0.000000 0.000000 0.000000 -2.273695 1.835122 -16.794200 3.376889 0.347601 13.666012 -5.496192 -16.586219 9.495161 0.000000 0.000000 0.000000 -10.464087 2.970585 24.689835 -2.848812 0.876928 -17.920272 -5.373283 5.228250 24.001509 -3.734668 3.254274 -5.164505 0.000000 0.000000 0.000000 -16.491736 -23.344054 12.458255 -52.958152 -44.640415 13.046503 -10.124610 -49.575994 8.204429 0.000000 0.000000 0.000000 -12.709336 19.167036 5.359812 40.555595 27.955750 3.068378 66.676576 71.885584 53.091862 0.000000 0.000000 0.000000 
-0.005665 0.934622 0.002079 -7.355193 -19.161773 10.456968 16.280889 2.659068 -22.127940 -2.867859 1.018751 16.425045 0.915334 2.612333 4.143839 0.000000 0.000000 0.000000 -2.203328 1.856792 -16.869523 3.353387 0.393586 14.067982 -5.588328 -16.719517 9.264470 0.000000 0.000000 0.000000 -10.605064 3.034066 24.587840 -2.775228 0.843735 -17.783143 -5.260943 5.064159 23.773304 -4.173816 3.578918 -5.429508 0.000000 0.000000 0.000000 -16.517382 -23.153834 12.465873 -51.881000 -44.677096 12.690434 -10.051817 -50.017448 8.274932 0.000000 0.000000 0.000000 -12.468566 19.251030 5.443024 40.533666 28.782823 3.276910 70.661934 71.403353 55.906553 0.000000 0.000000 0.000000 
-0.005944 0.934740 0.001984 -7.352397 -19.389020 10.529156 16.487102 2.741685 -22.162832 -3.122187 1.093485 16.267414 1.025202 2.859241 4.416065 0.000000 0.000000 0.000000 -2.320743 1.858607 -16.913520 3.475117 0.369665 13.944647 -5.622387 -16.908502 9.696179 0.000000 0.000000 0.000000 -10.690500 3.051258 24.389706 -2.524756 0.771735 -17.983743 -5.184904 5.017854 24.247441 -4.685876 3.976743 -5.981419 0.000000 0.000000 0.000000 -16.490358 -23.224682 12.564955 -50.963381 -45.181306 12.581100 -9.314128 -49.778429 7.878052 0.000000 0.000000 0.000000 -12.533103 18.914567 5.371195 41.083320 29.723002 3.581068 74.868711 71.162809 59.351071 0.000000 0.000000 0.000000 
-0.006074 0.934785 0.001936 -7.317198 -19.598426 10.669748 16.612335 2.795461 -22.145239 -3.275010 1.143363 16.175090 0.897573 2.566515 4.182547 0.000000 0.000000 0.000000 -2.438102 1.872946 -17.041915 3.494772 0.366790 13.861276 -5.642180 -17.008080 9.876324 0.000000 0.000000 0.000000 -10.538249 2.959592 23.952759 -2.521082 0.761906 -17.709493 -5.154303 4.704459 24.097581 -5.202326 4.394795 -5.334480 0.000000 0.000000 0.000000 -16.876229 -23.215552 12.772373 -49.434353 -45.378073 12.110852 -9.167569 -49.561464 7.757498 0.000000 0.000000 0.000000 -11.823774 18.976272 5.494258 41.041571 30.007732 3.606842 77.988931 70.819834 61.590303 0.000000 0.000000 0.000000 
